<svg xmlns="http://www.w3.org/2000/svg" viewBox="0 0 458 458">
  <!-- <rect id="svg_23" width="63.349874" height="65.81716" x="198.825065" y="281.091421" fill="#7289da" stroke="#000" stroke-width="0" transform="rotate(45.607425689697266 230.5,314) "/>
  <rect id="svg_22" width="306" height="210" x="77.5" y="104" fill="#7289da" stroke="#000" stroke-width="0"/> -->
  <path id="svg_4" fill="#ffffff" stroke="#7289da" stroke-width="0" d="m376.925752,84.533004l-292.851537,0c-12.190865,0 -22.074236,10.53017 -22.074236,23.518843l0,197.558285c0,12.988673 9.883371,23.518843 22.074236,23.518843l97.200221,0l32.33287,40.956498c4.194105,5.312907 10.377099,8.380548 16.893413,8.380548c6.516315,0 12.699308,-3.066857 16.893413,-8.379764l32.33287,-40.956498l97.19875,0c12.191601,0 22.074236,-10.53017 22.074236,-23.518843l0,-197.558285c0,-12.989457 -9.882636,-23.519627 -22.074236,-23.519627zm0,221.077128l-107.47725,0l-38.948519,49.336262l-38.947783,-49.336262l-107.477986,0l0,-197.558285l292.851537,0l0,197.558285z"/>
  <path id="svg_5" fill="#ffffff" stroke="#7289da" stroke-width="0" d="m124.839443,175.053897l100.80568,0c6.095432,0 11.037118,-5.265085 11.037118,-11.759422s-4.941686,-11.759422 -11.037118,-11.759422l-100.80568,0c-6.095432,0 -11.037118,5.265085 -11.037118,11.759422s4.941686,11.759422 11.037118,11.759422z"/>
  <path id="svg_6" fill="#ffffff" stroke="#7289da" stroke-width="0" d="m114.242338,235.418928c0,6.494337 4.941686,11.759422 11.037118,11.759422l210.441054,0c6.095432,0 11.037118,-5.265085 11.037118,-11.759422s-4.941686,-11.759422 -11.037118,-11.759422l-210.441054,0c-6.095432,0 -11.037118,5.265085 -11.037118,11.759422z"/>
</svg>
